<svg width="124" height="106" viewBox="0 0 124 106" fill="none" xmlns="http://www.w3.org/2000/svg">
<path d="M23.8604 21.5838C23.8604 9.331 33.1914 0 47.1697 0C62.1341 0 73.7127 11.4191 63.5552 28.8195C56.6385 23.8096 40.5285 26.4487 43.6389 41.7684C47.989 39.1293 54.2314 36.9035 59.8793 37.3167C65.81 37.5922 69.1958 40.9418 69.1958 44.8352C69.1958 49.9901 64.5412 53.0496 58.4583 53.0496C52.5349 53.0496 47.0247 49.9901 42.6456 45.9517C37.1427 50.6861 33.7496 56.392 33.7496 66.0057C33.7496 79.7811 45.6109 90.6564 61.4309 90.6564C68.1333 90.7554 74.7481 89.1248 80.6366 85.922C69.0363 85.3637 61.7136 78.6718 61.7136 69.4858C61.7136 50.2801 84.4502 51.8026 97.7253 40.9418C89.6704 38.1505 84.878 31.7486 84.878 23.9256C84.878 13.3476 93.3462 5.27089 104.084 5.27089C115.539 5.29264 124 13.3694 124 24.6507C124 41.0723 111 49.5696 86.009 53.1801C89.3114 54.6195 92.1168 56.9994 94.0753 60.0229C96.0338 63.0464 97.0587 66.5796 97.0221 70.1819C97.0221 88.3073 74.5464 105.418 48.0107 105.418C18.2125 105.418 0 90.3736 0 71.5739C0 51.9404 16.7987 43.4504 36.715 42.4716C29.3705 37.73 23.8604 29.9288 23.8604 21.5838Z" fill="#CC2027"/>
</svg>
