<svg width="162" height="26" viewBox="0 0 162 26" fill="none" xmlns="http://www.w3.org/2000/svg">
<mask id="mask0_1788_93" style="mask-type:luminance" maskUnits="userSpaceOnUse" x="0" y="0" width="162" height="26">
<path d="M161.749 0H0V25.7886H161.749V0Z" fill="white"/>
</mask>
<g mask="url(#mask0_1788_93)">
<path d="M79.3843 5.28047C79.3843 2.28282 81.6671 0 85.0869 0C88.748 0 91.5806 2.79366 89.0956 7.05068C87.4034 5.82501 83.4622 6.47066 84.2231 10.2186C85.2874 9.57296 86.8146 9.02841 88.1963 9.12952C89.6473 9.19692 90.4756 10.0164 90.4756 10.9689C90.4756 12.23 89.3368 12.9786 87.8487 12.9786C86.3995 12.9786 85.0514 12.23 83.9801 11.2421C82.6338 12.4003 81.8037 13.7963 81.8037 16.1483C81.8037 19.5184 84.7056 22.179 88.5759 22.179C90.2156 22.2033 91.8339 21.8043 93.2746 21.0208C90.4366 20.8842 88.6451 19.247 88.6451 16.9997C88.6451 12.301 94.2076 12.6735 97.4553 10.0164C95.4847 9.3335 94.3122 7.76727 94.3122 5.85339C94.3122 3.26548 96.384 1.28952 99.0109 1.28952C101.813 1.29484 103.883 3.2708 103.883 6.03077C103.883 10.0483 100.703 12.1272 94.5889 13.0105C95.3969 13.3626 96.0832 13.9449 96.5623 14.6846C97.0415 15.4243 97.2922 16.2887 97.2833 17.17C97.2833 21.6043 91.7846 25.7904 85.2927 25.7904C78.0025 25.7904 73.5469 22.1099 73.5469 17.5105C73.5469 12.7072 77.6567 10.6301 82.5292 10.3907C80.7324 9.23062 79.3843 7.32206 79.3843 5.28047Z" fill="#CC2027"/>
</g>
<path d="M0 21.8734V4.97656H1.21502V21.8734H0Z" fill="white"/>
<path d="M20.6594 21.874V7.24047L13.9865 18.6564H13.2238L6.55096 7.24047V21.874H5.33594V4.9541H6.55096L13.6052 17.06L20.6594 4.9541H21.8744V21.874H20.6594Z" fill="white"/>
<path d="M31.8895 6.43164L28.1238 15.3004H35.5736L31.8806 6.43164H31.8895ZM24.1914 21.874L31.3964 4.9541H32.3968L39.5947 21.874H38.2839L35.9248 16.2973H27.8365L25.4774 21.874H24.1914Z" fill="white"/>
<path d="M54.3856 19.2521C52.7502 21.0803 50.86 21.9944 48.7149 21.9944C47.6107 22.0043 46.52 21.7513 45.5328 21.2565C44.5741 20.7788 43.7198 20.1156 43.0194 19.3054C42.3142 18.4869 41.7571 17.5517 41.3733 16.5418C40.9818 15.5388 40.7797 14.4719 40.7773 13.3952C40.7775 11.2081 41.5594 9.09303 42.9821 7.43184C43.666 6.64307 44.5006 5.99899 45.437 5.53747C46.4043 5.0608 47.4699 4.81779 48.5482 4.82797C49.3256 4.81736 50.1009 4.90981 50.854 5.1029C51.4882 5.2677 52.0948 5.52468 52.6544 5.86561C53.168 6.18217 53.6298 6.57582 54.0237 7.03275C54.4137 7.48678 54.7462 7.98721 55.0135 8.5227L54.0362 9.11868C53.4449 8.00713 52.6763 7.20066 51.7303 6.69928C50.7403 6.18812 49.6391 5.93034 48.5251 5.94898C47.5841 5.93487 46.6544 6.15556 45.8201 6.59108C45.0269 7.01252 44.3261 7.58848 43.759 8.28502C43.1815 8.99314 42.7373 9.8003 42.4482 10.6672C42.148 11.5496 41.9952 12.4755 41.9959 13.4076C41.9871 15.3301 42.6868 17.1884 43.9612 18.6278C44.5673 19.3068 45.2999 19.8611 46.1181 20.2596C46.9457 20.6669 47.8564 20.877 48.7788 20.8734C49.7952 20.8783 50.7975 20.6347 51.6984 20.1639C52.6112 19.6909 53.5046 18.9441 54.3785 17.9236V14.6297H50.5525V13.6577H55.4623V21.8791H54.3891V19.2521H54.3856Z" fill="white"/>
<path d="M70.0709 20.7778V21.874H58.7969V4.9541H69.8545V6.05028H60.0119V12.6983H68.6164V13.7466H60.0119V20.7778H70.0709Z" fill="white"/>
<path d="M122.093 6.05028H115.895V21.874H114.682V6.05028H108.484V4.9541H122.093V6.05028Z" fill="white"/>
<path d="M124.477 21.8734V4.97656H125.692V21.8734H124.477Z" fill="white"/>
<path d="M145.138 21.874V7.24047L138.463 18.6564H137.702L131.028 7.24047V21.874H129.812V4.9541H131.028L138.084 17.06L145.138 4.9541H146.353V21.874H145.138Z" fill="white"/>
<path d="M161.751 20.7778V21.874H150.477V4.9541H161.536V6.05028H151.693V12.6983H160.298V13.7466H151.693V20.7778H161.751Z" fill="white"/>
</svg>
